<?xml version="1.0" encoding="UTF-8"?>
<svg width="274px" height="51px" viewBox="0 0 274 51" version="1.1" xmlns="http://www.w3.org/2000/svg" xmlns:xlink="http://www.w3.org/1999/xlink">
    <!-- Generator: Sketch 60 (88103) - https://sketch.com -->
    <title>diabetes_uk_logo</title>
    <desc>Created with Sketch.</desc>
    <g id="Page-1" stroke="none" stroke-width="1" fill="none" fill-rule="evenodd">
        <g id="Logo-new-strap-RGB-mono-01" transform="translate(-26.000000, -26.000000)" fill="#111478">
            <g id="diabetes_uk_logo" transform="translate(26.585000, 26.108000)">
                <path d="M0,49.6685745 L3.29980851,49.6685745 L3.29980851,46.502234 L4.2167234,45.4963404 L6.85678723,49.6685745 L10.9682553,49.6685745 L6.45204255,43.1405745 L10.3378085,38.954234 L6.27191489,38.954234 L3.33019149,42.645766 L3.29980851,42.645766 L3.29980851,38.954234 L0,38.954234 L0,49.6685745 Z M11.4988723,49.6685745 L14.6207234,49.6685745 L14.6207234,43.8165957 L14.6511064,43.8165957 L17.9368085,49.6685745 L21.1476383,49.6685745 L21.1476383,38.954234 L18.0268723,38.954234 L18.0268723,44.6868511 L17.9964894,44.6868511 L14.8757234,38.954234 L11.4988723,38.954234 L11.4988723,49.6685745 Z M22.3358298,44.3114043 C22.3358298,47.583 24.5114681,49.9235745 27.7678723,49.9235745 C31.0231915,49.9235745 33.1988298,47.583 33.1988298,44.3114043 C33.1988298,41.0408936 31.0231915,38.7003191 27.7678723,38.7003191 C24.5114681,38.7003191 22.3358298,41.0408936 22.3358298,44.3114043 L22.3358298,44.3114043 Z M25.6356383,44.3114043 C25.6356383,41.9252553 26.9269149,41.370766 27.7678723,41.370766 C28.6077447,41.370766 29.8979362,41.9252553 29.8979362,44.3114043 C29.8979362,46.6964681 28.6077447,47.2520426 27.7678723,47.2520426 C26.9269149,47.2520426 25.6356383,46.6964681 25.6356383,44.3114043 L25.6356383,44.3114043 Z M47.7555319,38.954234 L44.5002128,38.954234 L43.1644468,45.6623617 L43.1340638,45.6623617 L41.8742553,38.954234 L38.964,38.954234 L37.6738085,45.5712128 L37.6434255,45.5712128 L36.3380426,38.954234 L33.0968298,38.954234 L36.0070851,49.6685745 L39.2341915,49.6685745 L40.3583617,43.1405745 L40.3887447,43.1405745 L41.5454681,49.6685745 L44.7562979,49.6685745 L47.7555319,38.954234 Z M52.917383,49.6685745 L57.6885957,49.6685745 C61.424617,49.6685745 63.1662128,47.583 63.1662128,44.2962128 C63.1662128,41.595383 61.9064043,38.954234 58.334234,38.954234 L52.917383,38.954234 L52.917383,49.6685745 Z M56.2182766,41.6995532 L57.2686596,41.6995532 C59.6548085,41.6995532 59.8653191,43.5757021 59.8653191,44.2517234 C59.8653191,45.2565319 59.5658298,46.9221702 57.5095532,46.9221702 L56.2182766,46.9221702 L56.2182766,41.6995532 Z M64.3902128,49.6685745 L67.6911064,49.6685745 L67.6911064,38.954234 L64.3902128,38.954234 L64.3902128,49.6685745 Z M72.7596383,45.8414043 L73.7959149,42.5405106 L73.8252128,42.5405106 L74.7855319,45.8414043 L72.7596383,45.8414043 Z M68.2434255,49.6685745 L71.5605957,49.6685745 L72.0402128,48.1374894 L75.4463617,48.1374894 L75.8955957,49.6685745 L79.3169362,49.6685745 L75.4159787,38.954234 L72.1899574,38.954234 L68.2434255,49.6685745 Z M83.2005319,45.1219787 L85.2698298,45.1219787 C86.0500213,45.1219787 86.4254681,45.4670426 86.4254681,46.0974894 C86.4254681,46.9221702 85.8264894,47.1174894 85.1352766,47.1174894 L83.2005319,47.1174894 L83.2005319,45.1219787 Z M79.8985532,49.6685745 L85.9751489,49.6685745 C87.8664894,49.6685745 89.7263617,48.5585106 89.7263617,46.4121702 C89.7263617,44.8376809 88.8268085,44.0715957 87.8664894,43.7417234 C88.6618723,43.3065957 89.1859787,42.7217234 89.1859787,41.6409574 C89.1859787,40.545 88.587,38.954234 85.7657234,38.954234 L79.8985532,38.954234 L79.8985532,49.6685745 Z M83.2005319,41.5064043 L84.9399574,41.5064043 C85.6148936,41.5064043 86.0662979,41.6995532 86.0662979,42.2399362 C86.0662979,42.9311489 85.6311702,43.1264681 84.9399574,43.1264681 L83.2005319,43.1264681 L83.2005319,41.5064043 Z M90.8646383,49.6685745 L99.8970638,49.6685745 L99.8970638,46.9221702 L94.1644468,46.9221702 L94.1644468,45.5874894 L99.2221277,45.5874894 L99.2221277,43.0364043 L94.1644468,43.0364043 L94.1644468,41.6995532 L99.7332128,41.6995532 L99.7332128,38.954234 L90.8646383,38.954234 L90.8646383,49.6685745 Z M103.536511,49.6685745 L106.838489,49.6685745 L106.838489,41.6995532 L109.838809,41.6995532 L109.838809,38.954234 L100.536191,38.954234 L100.536191,41.6995532 L103.536511,41.6995532 L103.536511,49.6685745 Z M110.652638,49.6685745 L119.685064,49.6685745 L119.685064,46.9221702 L113.954617,46.9221702 L113.954617,45.5874894 L119.010128,45.5874894 L119.010128,43.0364043 L113.954617,43.0364043 L113.954617,41.6995532 L119.520128,41.6995532 L119.520128,38.954234 L110.652638,38.954234 L110.652638,49.6685745 Z M120.400149,46.0671064 C120.429447,49.4873617 123.895277,49.9235745 125.110596,49.9235745 C127.496745,49.9235745 130.063021,49.0229362 130.063021,46.2320426 C130.063021,44.2669149 128.561234,43.5615957 127.046426,43.1405745 C125.531617,42.7217234 124.000532,42.5557021 123.940851,41.7907021 C123.940851,41.1895532 124.675468,41.0701915 125.124702,41.0701915 C125.456745,41.0701915 125.830021,41.1450638 126.100213,41.340383 C126.370404,41.5205106 126.551617,41.7907021 126.490851,42.1954468 L129.612702,42.1954468 C129.522638,39.5846809 127.466362,38.7003191 125.140979,38.7003191 C122.936043,38.7003191 120.819,39.7648085 120.819,42.2399362 C120.819,44.4014681 122.75483,44.8658936 124.449766,45.3476809 C126.295532,45.8717872 126.761043,46.022617 126.761043,46.5771064 C126.761043,47.3714043 125.936362,47.552617 125.395979,47.552617 C124.781809,47.552617 124.060213,47.4180638 123.820404,46.7724255 C123.745532,46.5771064 123.699957,46.3372979 123.699957,46.0671064 L120.400149,46.0671064 Z M131.094957,49.6685745 L134.216809,49.6685745 L134.216809,46.6975532 L131.094957,46.6975532 L131.094957,49.6685745 Z M140.427957,49.6685745 L143.728851,49.6685745 L143.728851,45.5874894 L148.005255,45.5874894 L148.005255,43.0364043 L143.728851,43.0364043 L143.728851,41.6995532 L148.710574,41.6995532 L148.710574,38.954234 L140.427957,38.954234 L140.427957,49.6685745 Z M149.644851,49.6685745 L152.945745,49.6685745 L152.945745,38.954234 L149.644851,38.954234 L149.644851,49.6685745 Z M162.385085,49.6685745 L164.47066,49.6685745 L164.47066,43.7710213 L160.089,43.7710213 L160.089,46.0671064 L161.545213,46.0671064 C161.379191,46.8614043 160.599,47.2520426 159.834,47.2520426 C157.824383,47.2520426 157.418553,45.4963404 157.418553,44.4915319 C157.418553,43.7558298 157.342596,41.370766 159.609383,41.370766 C160.389574,41.370766 161.049319,41.9252553 161.169766,42.7054468 L164.336106,42.7054468 C163.856489,40.1858298 162.13117,38.7003191 159.398872,38.7003191 C156.983426,38.7003191 154.11766,40.3355745 154.11766,44.4166596 C154.11766,47.4625532 156.068681,49.9235745 159.235021,49.9235745 C160.403681,49.9235745 161.545213,49.5177447 162.27983,48.572617 L162.385085,49.6685745 Z M166.00283,49.6685745 L169.303723,49.6685745 L169.303723,45.4225532 L172.395191,45.4225532 L172.395191,49.6685745 L175.695,49.6685745 L175.695,38.954234 L172.395191,38.954234 L172.395191,42.6750638 L169.303723,42.6750638 L169.303723,38.954234 L166.00283,38.954234 L166.00283,49.6685745 Z M179.502638,49.6685745 L182.803532,49.6685745 L182.803532,41.6995532 L185.803851,41.6995532 L185.803851,38.954234 L176.501234,38.954234 L176.501234,41.6995532 L179.502638,41.6995532 L179.502638,49.6685745 Z M191.431213,49.6685745 L196.20134,49.6685745 C199.938447,49.6685745 201.678957,47.583 201.678957,44.2962128 C201.678957,41.595383 200.419149,38.954234 196.848064,38.954234 L191.431213,38.954234 L191.431213,49.6685745 Z M194.732106,41.6995532 L195.782489,41.6995532 C198.168638,41.6995532 198.378064,43.5757021 198.378064,44.2517234 C198.378064,45.2565319 198.077489,46.9221702 196.022298,46.9221702 L194.732106,46.9221702 L194.732106,41.6995532 Z M202.902957,49.6685745 L206.203851,49.6685745 L206.203851,38.954234 L202.902957,38.954234 L202.902957,49.6685745 Z M211.273468,45.8414043 L212.30866,42.5405106 L212.339043,42.5405106 L213.298277,45.8414043 L211.273468,45.8414043 Z M206.75617,49.6685745 L210.07334,49.6685745 L210.552957,48.1374894 L213.959106,48.1374894 L214.409426,49.6685745 L217.829681,49.6685745 L213.929809,38.954234 L210.702702,38.954234 L206.75617,49.6685745 Z M221.713277,45.1219787 L223.78366,45.1219787 C224.564936,45.1219787 224.938213,45.4670426 224.938213,46.0974894 C224.938213,46.9221702 224.339234,47.1174894 223.648021,47.1174894 L221.713277,47.1174894 L221.713277,45.1219787 Z M218.412383,49.6685745 L224.488979,49.6685745 C226.379234,49.6685745 228.240191,48.5585106 228.240191,46.4121702 C228.240191,44.8376809 227.340638,44.0715957 226.379234,43.7417234 C227.175702,43.3065957 227.699809,42.7217234 227.699809,41.6409574 C227.699809,40.545 227.10083,38.954234 224.279553,38.954234 L218.412383,38.954234 L218.412383,49.6685745 Z M221.713277,41.5064043 L223.452702,41.5064043 C224.129809,41.5064043 224.579043,41.6995532 224.579043,42.2399362 C224.579043,42.9311489 224.143915,43.1264681 223.452702,43.1264681 L221.713277,43.1264681 L221.713277,41.5064043 Z M229.378468,49.6685745 L238.409809,49.6685745 L238.409809,46.9221702 L232.679362,46.9221702 L232.679362,45.5874894 L237.734872,45.5874894 L237.734872,43.0364043 L232.679362,43.0364043 L232.679362,41.6995532 L238.245957,41.6995532 L238.245957,38.954234 L229.378468,38.954234 L229.378468,49.6685745 Z M242.05034,49.6685745 L245.351234,49.6685745 L245.351234,41.6995532 L248.352638,41.6995532 L248.352638,38.954234 L239.048936,38.954234 L239.048936,41.6995532 L242.05034,41.6995532 L242.05034,49.6685745 Z M249.165383,49.6685745 L258.197809,49.6685745 L258.197809,46.9221702 L252.466277,46.9221702 L252.466277,45.5874894 L257.522872,45.5874894 L257.522872,43.0364043 L252.466277,43.0364043 L252.466277,41.6995532 L258.032872,41.6995532 L258.032872,38.954234 L249.165383,38.954234 L249.165383,49.6685745 Z M258.911809,46.0671064 C258.942191,49.4873617 262.409106,49.9235745 263.624426,49.9235745 C266.009489,49.9235745 268.575766,49.0229362 268.575766,46.2320426 C268.575766,44.2669149 267.075064,43.5615957 265.55917,43.1405745 C264.043277,42.7217234 262.513277,42.5557021 262.454681,41.7907021 C262.454681,41.1895532 263.188213,41.0701915 263.638532,41.0701915 C263.968404,41.0701915 264.343851,41.1450638 264.614043,41.340383 C264.884234,41.5205106 265.064362,41.7907021 265.004681,42.1954468 L268.126532,42.1954468 C268.035383,39.5846809 265.980191,38.7003191 263.653723,38.7003191 C261.448787,38.7003191 259.33283,39.7648085 259.33283,42.2399362 C259.33283,44.4014681 261.267574,44.8658936 262.964681,45.3476809 C264.809362,45.8717872 265.274872,46.022617 265.274872,46.5771064 C265.274872,47.3714043 264.449106,47.552617 263.908723,47.552617 C263.294553,47.552617 262.574043,47.4180638 262.334234,46.7724255 C262.259362,46.5771064 262.213787,46.3372979 262.213787,46.0671064 L258.911809,46.0671064 L258.911809,46.0671064 Z" id="Fill-1"></path>
                <path d="M0.162765957,0.693382979 L14.9115319,0.693382979 C24.6362553,0.693382979 28.0684468,7.88546809 28.0684468,15.239234 C28.0684468,24.1859362 23.327617,29.865383 13.1547447,29.865383 L0.162765957,29.865383 L0.162765957,0.693382979 Z M9.15070213,22.389 L12.6642766,22.389 C18.2623404,22.389 19.0783404,17.8521702 19.0783404,15.1155319 C19.0783404,13.2773617 18.5064894,8.16976596 12.0121277,8.16976596 L9.15070213,8.16976596 L9.15070213,22.389 L9.15070213,22.389 Z" id="Fill-2"></path>
                <path d="M48.7223617,0.693382979 L37.9787234,29.865383 L47.0068085,29.865383 L48.3132766,25.6964043 L57.5876809,25.6964043 L58.8138511,29.865383 L68.1294894,29.865383 L57.507383,0.693382979 L48.7223617,0.693382979 Z M53.0931702,10.4593404 L53.1756383,10.4593404 L55.7896596,19.4461915 L50.2740638,19.4461915 L53.0931702,10.4593404 L53.0931702,10.4593404 Z" id="Fill-3"></path>
                <path d="M68.636234,0.693382979 L84.6100851,0.693382979 C92.2904681,0.693382979 93.9257234,5.02512766 93.9257234,8.00808511 C93.9257234,10.9487234 92.4966383,12.5427447 90.3296809,13.7276809 C92.9447872,14.6250638 95.3960426,16.7095532 95.3960426,21.0000638 C95.3960426,26.8411915 90.3296809,29.865383 85.1830213,29.865383 L68.636234,29.865383 L68.636234,0.693382979 Z M77.6252553,12.0522766 L82.3628298,12.0522766 C84.242234,12.0522766 85.4271702,11.5194894 85.4271702,9.64225532 C85.4271702,8.16976596 84.201,7.64023404 82.3628298,7.64023404 L77.6252553,7.64023404 L77.6252553,12.0522766 Z M77.6252553,22.9185319 L82.8934468,22.9185319 C84.7750213,22.9185319 86.4081064,22.389 86.4081064,20.1417447 C86.4081064,18.4251064 85.3870213,17.4854043 83.2612979,17.4854043 L77.6252553,17.4854043 L77.6252553,22.9185319 L77.6252553,22.9185319 Z" id="Fill-4"></path>
                <polyline id="Fill-5" points="96.6992553 0.693382979 96.6992553 29.865383 121.294277 29.865383 121.294277 22.3879149 105.686106 22.3879149 105.686106 18.7528085 119.457191 18.7528085 119.457191 11.8070426 105.686106 11.8070426 105.686106 8.17085106 120.845043 8.17085106 120.845043 0.693382979 96.6992553 0.693382979"></polyline>
                <polyline id="Fill-6" points="121.926894 0.693382979 121.926894 8.17085106 130.09666 8.17085106 130.09666 29.865383 139.085681 29.865383 139.085681 8.17085106 147.256532 8.17085106 147.256532 0.693382979 121.926894 0.693382979"></polyline>
                <polyline id="Fill-7" points="148.289553 0.693382979 148.289553 29.865383 172.88566 29.865383 172.88566 22.3879149 157.277489 22.3879149 157.277489 18.7528085 171.045319 18.7528085 171.045319 11.8070426 157.277489 11.8070426 157.277489 8.17085106 172.436426 8.17085106 172.436426 0.693382979 148.289553 0.693382979"></polyline>
                <path d="M182.264234,20.0581915 C182.264234,20.7938936 182.385766,21.4492979 182.590851,21.9799149 C183.24517,23.7377872 185.205957,24.1045532 186.881362,24.1045532 C188.350596,24.1045532 190.597851,23.6140851 190.597851,21.4492979 C190.597851,19.9355745 189.331532,19.5264894 184.307489,18.0984894 C179.689277,16.7909362 174.421085,15.524617 174.421085,9.64225532 C174.421085,2.89940426 180.18083,0 186.186894,0 C192.517404,0 198.114383,2.41002128 198.360702,9.51855319 L189.863234,9.51855319 C190.027085,8.41608511 189.534447,7.68038298 188.800915,7.191 C188.065213,6.65929787 187.043043,6.45529787 186.14566,6.45529787 C184.919489,6.45529787 182.916383,6.78191489 182.916383,8.41608511 C183.081319,10.5005745 187.247043,10.9487234 191.373702,12.0924255 C195.500362,13.2350426 199.586872,15.156766 199.586872,20.5095957 C199.586872,28.1075106 192.599872,30.558766 186.104426,30.558766 C182.794851,30.558766 173.357681,29.3749149 173.275213,20.0581915 L182.264234,20.0581915" id="Fill-8"></path>
                <path d="M238.404383,18.5889574 C238.404383,26.6773404 234.031404,30.5576809 225.124851,30.5576809 C216.218298,30.5576809 211.806255,26.6773404 211.806255,18.5889574 L211.806255,0.693382979 L220.795277,0.693382979 L220.795277,16.5869362 C220.795277,19.5677234 220.795277,23.2874681 225.166085,23.2874681 C229.415362,23.2874681 229.415362,19.5677234 229.415362,16.5869362 L229.415362,0.693382979 L238.404383,0.693382979 L238.404383,18.5889574" id="Fill-9"></path>
                <polyline id="Fill-10" points="256.709043 0.693382979 248.700957 10.7447234 248.621745 10.7447234 248.621745 0.693382979 239.631638 0.693382979 239.631638 29.865383 248.621745 29.865383 248.621745 21.2442128 251.113149 18.5064894 258.301979 29.865383 269.497021 29.865383 257.201681 12.0924255 267.780383 0.693382979 256.709043 0.693382979"></polyline>
                <path d="M33.5601702,8.95429787 C36.0331277,8.95429787 38.0384043,6.95010638 38.0384043,4.47714894 C38.0384043,2.0052766 36.0331277,0 33.5601702,0 C31.0882979,0 29.0841064,2.0052766 29.0841064,4.47714894 C29.0841064,6.95010638 31.0882979,8.95429787 33.5601702,8.95429787" id="Fill-11"></path>
                <path d="M29.0841064,26.0827021 C29.0841064,28.5545745 31.089383,30.558766 33.5623404,30.558766 C36.0320426,30.558766 38.0384043,28.5545745 38.0384043,26.0827021 L38.0384043,14.4818298 C38.0384043,12.0099574 36.0320426,10.0068511 33.5612553,10.0068511 C31.089383,10.0068511 29.0841064,12.0099574 29.0841064,14.4818298 L29.0841064,26.0827021" id="Fill-12"></path>
                <polygon id="Fill-13" points="269.63917 49.6685745 272.761021 49.6685745 272.761021 46.6975532 269.63917 46.6975532"></polygon>
            </g>
        </g>
    </g>
</svg>