<svg width="172" height="172" viewBox="0 0 172 172" fill="none" xmlns="http://www.w3.org/2000/svg">
<circle cx="86" cy="86" r="86" fill="#EAB308"/>
<circle cx="86" cy="86" r="23" fill="white"/>
<path d="M118.817 71.3943H125.225V117C125.225 118.104 124.33 119 123.225 119H120.817C119.712 119 118.817 118.104 118.817 117V71.3943Z" fill="white"/>
<ellipse cx="122.021" cy="66.3592" rx="8.69718" ry="12.3592" fill="#FFFDFD"/>
<path d="M46.4932 71.3943H52.9016V117C52.9016 118.104 52.0062 119 50.9016 119H48.4932C47.3886 119 46.4932 118.104 46.4932 117V71.3943Z" fill="white"/>
<path d="M41 55.831C41 54.8198 41.8198 54 42.831 54C43.8422 54 44.662 54.8198 44.662 55.831V75.9718H41V55.831Z" fill="white"/>
<path d="M54.7324 55.831C54.7324 54.8198 55.5522 54 56.5634 54C57.5746 54 58.3944 54.8198 58.3944 55.831V75.9718H54.7324V55.831Z" fill="white"/>
<path d="M48.3242 55.831C48.3242 54.8198 49.144 54 50.1552 54C51.1664 54 51.9862 54.8198 51.9862 55.831V78.7183H48.3242V55.831Z" fill="white"/>
<path d="M41 68.6479H58.3944V76.7184C58.3944 77.8229 57.4989 78.7184 56.3944 78.7184H43C41.8954 78.7184 41 77.8229 41 76.7184V68.6479Z" fill="white"/>
</svg>
